<svg width="74" height="14" viewBox="0 0 74 14" fill="none" xmlns="http://www.w3.org/2000/svg">
<path d="M8.23204 6.96487C8.23204 7.17563 8.22222 7.39642 8.19279 7.6172H2.18802C2.27632 8.16918 2.49218 8.59068 2.82578 8.89176C3.16919 9.19283 3.6009 9.33333 4.13074 9.33333C4.49377 9.33333 4.81756 9.25305 5.11191 9.08244C5.40626 8.91183 5.63193 8.69104 5.79873 8.4H8.06524C7.77089 9.28315 7.27049 9.98566 6.56404 10.5075C5.8576 11.0294 5.04323 11.2903 4.12092 11.2903C2.94352 11.2903 1.96234 10.8789 1.17741 10.0559C0.392469 9.23297 0 8.21935 0 6.99498C0 6.51326 0.0686821 6.05161 0.196234 5.61003C0.323787 5.16846 0.520023 4.77706 0.765316 4.41577C1.01061 4.06452 1.30496 3.76344 1.63856 3.50251C1.97216 3.24158 2.345 3.0509 2.76691 2.91039C3.18881 2.76989 3.64015 2.69964 4.11111 2.69964C4.90586 2.69964 5.62212 2.89032 6.25007 3.27168C6.88783 3.65305 7.3686 4.17491 7.7022 4.82724C8.06524 5.47957 8.23204 6.19211 8.23204 6.96487ZM4.13074 4.57634C3.64996 4.57634 3.24768 4.71685 2.91408 4.98781C2.58048 5.25878 2.36462 5.63011 2.24688 6.11183H6.09308C5.99496 5.78064 5.84779 5.49964 5.66137 5.27885C5.47494 5.05806 5.24927 4.87742 4.99417 4.75699C4.72925 4.63656 4.44471 4.57634 4.13074 4.57634Z" fill="#ABABAB"/>
<path d="M14.698 2.93047H16.935L13.7757 11.0595H11.7839L8.55583 2.93047H10.8321L12.7945 8.37993L14.698 2.93047Z" fill="#ABABAB"/>
<path d="M25.5007 6.96487C25.5007 7.17563 25.4909 7.39642 25.4614 7.6172H19.4567C19.545 8.16918 19.7608 8.59068 20.0944 8.89176C20.4378 9.19283 20.8695 9.33333 21.3994 9.33333C21.7624 9.33333 22.0862 9.25305 22.3805 9.08244C22.6749 8.91183 22.9006 8.69104 23.0674 8.4H25.3339C25.0395 9.28315 24.5391 9.98566 23.8327 10.5075C23.1262 11.0294 22.3119 11.2903 21.3896 11.2903C20.2122 11.2903 19.231 10.8789 18.446 10.0559C17.6611 9.23297 17.2686 8.21935 17.2686 6.99498C17.2686 6.51326 17.3373 6.05161 17.4649 5.61003C17.5924 5.16846 17.7887 4.77706 18.034 4.41577C18.2792 4.06452 18.5736 3.76344 18.9072 3.50251C19.2408 3.24158 19.6136 3.0509 20.0355 2.91039C20.4574 2.76989 20.9088 2.69964 21.3797 2.69964C22.1745 2.69964 22.8908 2.89032 23.5187 3.27168C24.1565 3.65305 24.6372 4.17491 24.9708 4.82724C25.3241 5.47957 25.5007 6.19211 25.5007 6.96487ZM21.3896 4.57634C20.9088 4.57634 20.5065 4.71685 20.1729 4.98781C19.8393 5.25878 19.6235 5.63011 19.5057 6.11183H23.3519C23.2538 5.78064 23.1066 5.49964 22.9202 5.27885C22.7338 5.05806 22.5081 4.87742 22.253 4.75699C21.9881 4.63656 21.7035 4.57634 21.3896 4.57634Z" fill="#ABABAB"/>
<path d="M31.0934 2.89032H31.7998V4.96774H30.8775C30.2692 4.96774 29.8375 5.11828 29.5725 5.39928C29.3076 5.69032 29.1801 6.17204 29.1801 6.82437V11.0595H27.0313V2.93047H28.4148L28.7974 3.92401C29.3272 3.23154 30.1024 2.89032 31.0934 2.89032Z" fill="#ABABAB"/>
<path d="M38.511 2.93047H40.807L37.3336 10.9591C36.843 12.0832 36.3426 12.8659 35.8324 13.3176C35.3222 13.7692 34.6256 14 33.7523 14H32.8693V12.0129H33.6248C34.135 12.0129 34.498 11.9125 34.7139 11.7219C34.9297 11.5312 35.1652 11.1197 35.4203 10.5075L35.4498 10.4473L32.0745 2.93047H34.4097L36.529 7.92832L38.511 2.93047Z" fill="#ABABAB"/>
<path d="M45.7226 9.10251H46.694V11.0595H45.1732C44.5943 11.0595 44.0939 10.9491 43.6622 10.7082C43.2403 10.4774 42.9067 10.1462 42.681 9.70466C42.4553 9.26308 42.3376 8.75125 42.3376 8.1491V4.69677H40.8953V4.23513L44.0448 0.812904H44.4373V2.93047H46.6253V4.68674H44.4765V7.8681C44.4765 8.2595 44.5845 8.56057 44.7905 8.78136C45.026 8.99211 45.3302 9.10251 45.7226 9.10251Z" fill="#ABABAB"/>
<path d="M55.7993 6.96487C55.7993 7.17563 55.7895 7.39642 55.76 7.6172H49.7553C49.8436 8.16918 50.0594 8.59068 50.393 8.89176C50.7364 9.19283 51.1681 9.33333 51.698 9.33333C52.061 9.33333 52.3848 9.25305 52.6791 9.08244C52.9735 8.91183 53.1992 8.69104 53.366 8.4H55.6423C55.3479 9.28315 54.8475 9.98566 54.1411 10.5075C53.4347 11.0294 52.6203 11.2903 51.698 11.2903C50.5206 11.2903 49.5394 10.8789 48.7545 10.0559C47.9695 9.23297 47.577 8.21935 47.577 6.99498C47.577 6.51326 47.6457 6.05161 47.7733 5.61003C47.9008 5.16846 48.0971 4.77706 48.3424 4.41577C48.5877 4.06452 48.882 3.76344 49.2156 3.50251C49.5492 3.24158 49.9221 3.0509 50.344 2.91039C50.7659 2.76989 51.2172 2.69964 51.6882 2.69964C52.4829 2.69964 53.1992 2.89032 53.8271 3.27168C54.4649 3.65305 54.9456 4.17491 55.2792 4.82724C55.6325 5.47957 55.7993 6.19211 55.7993 6.96487ZM51.698 4.57634C51.2172 4.57634 50.8149 4.71685 50.4813 4.98781C50.1477 5.25878 49.9319 5.63011 49.8141 6.11183H53.6603C53.5622 5.78064 53.415 5.49964 53.2286 5.27885C53.0422 5.05806 52.8165 4.87742 52.5614 4.75699C52.2965 4.63656 52.012 4.57634 51.698 4.57634Z" fill="#ABABAB"/>
<path d="M61.0289 11.2903C60.244 11.2903 59.5277 11.0996 58.89 10.7283C58.2424 10.347 57.742 9.83512 57.3691 9.17276C56.9963 8.51039 56.8197 7.77778 56.8197 6.97491C56.8197 5.76057 57.222 4.74695 58.0265 3.93405C58.8311 3.12115 59.8417 2.70968 61.0485 2.70968C62.0788 2.70968 62.9618 3.01075 63.6977 3.62294C64.4336 4.23513 64.8947 5.03799 65.091 6.04158H62.952C62.7754 5.65018 62.5203 5.33907 62.1769 5.11828C61.8335 4.89749 61.4508 4.77706 61.0191 4.77706C60.4402 4.77706 59.9594 4.98781 59.567 5.40932C59.1745 5.83082 58.9881 6.36272 58.9881 6.99498C58.9881 7.62724 59.1843 8.15914 59.5768 8.59068C59.9692 9.02222 60.45 9.24301 61.0191 9.24301C61.4508 9.24301 61.8335 9.12258 62.1671 8.89176C62.5007 8.66093 62.7558 8.31971 62.952 7.87814H65.1106C64.9144 8.91183 64.4434 9.7448 63.6977 10.367C62.952 10.9692 62.0592 11.2903 61.0289 11.2903Z" fill="#ABABAB"/>
<path d="M71.0761 2.73978C71.9788 2.73978 72.6852 3.0509 73.2151 3.66308C73.7351 4.27527 74 5.09821 74 6.1319V11.0595H71.8512V6.48315C71.8512 5.87097 71.7433 5.40932 71.5176 5.10824C71.292 4.80717 70.9486 4.65663 70.4678 4.65663C69.9281 4.65663 69.4964 4.84731 69.1727 5.22867C68.8489 5.61004 68.6919 6.1319 68.6919 6.78423V11.0595H66.5333V0H68.6821V3.69319C69.3296 3.0509 70.1244 2.73978 71.0761 2.73978Z" fill="#ABABAB"/>
</svg>
