<svg width="24" height="24" viewBox="0 0 24 24" fill="none" xmlns="http://www.w3.org/2000/svg">
<path d="M3.50513 4.45917L8.99935 20.3314C9.05108 20.4808 9.14875 20.6101 9.27838 20.7007C9.40801 20.7914 9.56297 20.8387 9.72111 20.8359C9.87926 20.8332 10.0325 20.7805 10.1589 20.6854C10.2853 20.5904 10.3784 20.4578 10.4249 20.3066L12.6333 13.1295C12.6692 13.0126 12.7333 12.9062 12.8198 12.8197C12.9063 12.7332 13.0126 12.6692 13.1295 12.6332L20.3066 10.4249C20.4578 10.3784 20.5904 10.2853 20.6855 10.1589C20.7805 10.0325 20.8332 9.87923 20.8359 9.72109C20.8387 9.56295 20.7914 9.40799 20.7008 9.27835C20.6101 9.14872 20.4809 9.05106 20.3314 8.99932L4.4592 3.5051C4.3262 3.45906 4.18292 3.45137 4.04575 3.48292C3.90858 3.51447 3.78306 3.58398 3.68354 3.68351C3.58401 3.78303 3.5145 3.90855 3.48295 4.04572C3.4514 4.18289 3.45909 4.32617 3.50513 4.45917V4.45917Z" stroke="white" stroke-linecap="round" stroke-linejoin="round"/>
</svg>
